<svg xmlns="http://www.w3.org/2000/svg" viewBox="0 0 512 512"><defs><style>.cls-1{fill:#fff;}.cls-2{fill:#02c7fa;}.cls-3{fill:#001d25;}.cls-4{fill:#03c7fb;}.cls-5{fill:#fd7904;}.cls-6{fill:#271300;}.cls-7{fill:#fd7b02;}</style></defs><title>Ресурс 2</title><g id="Слой_2" data-name="Слой 2"><g id="Capa_1" data-name="Capa 1"><path class="cls-1" d="M512,256c0,7.9-.4,15.7-1.1,23.4-.5,6.1-1.3,12.2-2.3,18.1C488.8,419.2,383.2,512,256,512A255.1,255.1,0,0,1,86.9,448.2a257.73,257.73,0,0,1-43.8-50A254.83,254.83,0,0,1,0,256C0,114.6,114.6,0,256,0S512,114.6,512,256Z"/><g id="Layer_4" data-name="Layer 4"><rect class="cls-2" x="93" y="53.47" width="384" height="384"/><rect class="cls-3" x="116" y="76.47" width="337.9" height="337.9"/><path class="cls-4" d="M219.3,268.77v42a8.75,8.75,0,0,1-8.8,8.8H199.9a8.75,8.75,0,0,1-8.8-8.8V156.17a8.75,8.75,0,0,1,8.8-8.8H219c.2,0,76.2-3.6,76.6,49.1v.8c.5,4.8,4.9,58.9-68,62.7A8.78,8.78,0,0,0,219.3,268.77Z"/><path class="cls-3" d="M217.7,177.47v51.3a4.67,4.67,0,0,0,4.6,4.7c11.9.1,42.6-4.4,42.6-32.4,0,0,3.7-27.6-42.3-28.3A4.87,4.87,0,0,0,217.7,177.47Z"/><path class="cls-4" d="M340.7,321.37c-8.3.2-16.5-.3-24.5-3.2-5.6-2-9.1-4.8-8.7-11.3.3-4.5-.1-9.1.1-13.6.2-4.2.9-7,6.3-3.8a52,52,0,0,0,31.2,6.8c5.5-.5,10.9-1.3,12.8-7.3,2.1-6.5-1.3-11.4-6.4-14.7-8-5.1-16.5-9.3-24.6-14.3-21.1-13.2-22.4-35.2-13.8-50.1,6-10.4,15.2-16.9,26.9-18.6a90.84,90.84,0,0,1,35.2,1.6c3.9,1,6.2,3.2,6.2,7.4,0,5.3.1,10.6.1,15.9s-2.4,6.1-6.7,3.8c-8.8-4.6-18.2-5.1-27.9-4.6-5.1.2-8.9,2.5-10.2,7.4-1.2,4.6-.2,8.8,3.9,12.1,8.1,6.5,18.1,9.7,26.7,15.5,17,11.5,23.3,26.5,18,45.3-3.8,13.3-18.4,25.4-37.1,25.7Z"/></g><g id="Layer_5" data-name="Layer 5"><rect class="cls-5" x="93" y="53.42" width="384" height="384"/><rect class="cls-6" x="116" y="76.42" width="337.9" height="337.9"/><path class="cls-7" d="M371.7,323.32H349.8a4.27,4.27,0,0,1-4.3-4.3V193.62a4.27,4.27,0,0,1,4.3-4.3h21.9a4.27,4.27,0,0,1,4.3,4.3V319A4.33,4.33,0,0,1,371.7,323.32Z"/><circle class="cls-7" cx="360.8" cy="155.72" r="17.8"/><path class="cls-7" d="M195,323.32h11.4a8.25,8.25,0,0,0,7.9-6l10.4-37.8a8.25,8.25,0,0,1,7.9-6h36.8a8.3,8.3,0,0,1,7.8,5.6l12.6,38.6a8.07,8.07,0,0,0,7.8,5.6h15.8a8.13,8.13,0,0,0,7.8-10.5l-49.4-164.5a8,8,0,0,0-7.8-5.8H240a8.25,8.25,0,0,0-7.9,6L187.2,313A8.09,8.09,0,0,0,195,323.32Z"/><polygon class="cls-6" points="251.3 176.42 233.7 245.72 270.7 245.72 251.3 176.42"/></g></g></g></svg>