<?xml version="1.0" encoding="utf-8"?>
<!-- Generator: Adobe Illustrator 22.1.0, SVG Export Plug-In . SVG Version: 6.00 Build 0)  -->
<svg version="1.1" id="Capa_1" xmlns="http://www.w3.org/2000/svg" xmlns:xlink="http://www.w3.org/1999/xlink" x="0px" y="0px"
	 viewBox="0 0 512 512" style="enable-background:new 0 0 512 512;" xml:space="preserve">
<style type="text/css">
	.st0{fill:#FFFFFF;}
	.st1{fill:#006BC0;}
	.st2{fill:#0096DC;}
	.st3{fill:#222123;}
</style>
<path class="st0" d="M512,256c0,82.3-38.9,155.6-99.2,202.4C369.5,492,315.1,512,256,512s-113.5-20-156.8-53.6
	C38.9,411.6,0,338.3,0,256C0,114.6,114.6,0,256,0S512,114.6,512,256z"/>
<path class="st1" d="M442,119.5l-29.2,338.9C369.5,492,315.1,512,256,512s-113.5-20-156.8-53.6L70,119.5H442z"/>
<polygon class="st2" points="256,151.3 256,505.3 378.3,470.8 405.5,151.3 "/>
<polygon class="st0" points="364,289.8 275.9,289.8 368,242.9 372,195.7 140,195.7 144.1,243.8 237.2,243.8 147.8,288.5 152,337.7 
	152,337.7 311.4,337.7 306.2,396.4 256,410 203.8,395.3 202.4,358.8 153.8,358.8 159.9,430.8 256,458 352.1,430.8 364,289.8 "/>
<g>
	<polygon class="st3" points="165.4,67.2 165.4,33.8 213.4,33.8 213.4,15.7 147.9,15.7 147.9,85.3 213.4,85.3 213.4,67.2 	"/>
	<polygon class="st3" points="241.5,42.9 241.5,34.6 289.3,34.6 289.3,33.8 289.3,15.7 223.9,15.7 223.9,58.9 270.8,58.9 
		270.8,67.2 223.9,67.2 223.9,85.3 289.3,85.3 289.3,67.2 289.3,42.9 	"/>
	<polygon class="st3" points="316.3,42.9 316.3,34.6 364.1,34.6 364.1,33.8 364.1,15.7 298.6,15.7 298.6,58.9 345.5,58.9 
		345.5,67.2 298.6,67.2 298.6,85.3 364.1,85.3 364.1,67.2 364.1,42.9 	"/>
</g>
</svg>
