<svg xmlns="http://www.w3.org/2000/svg" viewBox="0 0 512 512"><defs><style>.cls-1{fill:#fff;}.cls-2{fill:#da4648;}</style></defs><title>Ресурс 1</title><g id="Слой_2" data-name="Слой 2"><g id="Capa_1" data-name="Capa 1"><path class="cls-1" d="M512,256A256,256,0,1,1,0,256C0,114.6,114.6,0,256,0S512,114.6,512,256Z"/><path class="cls-2" d="M380.45,359.49q-2.71,4.08-5.87,7.95t-5.9,7q-2.74,3.16-4.62,5.38c-1.24,1.48-1.89,2.48-1.94,3a2.28,2.28,0,0,0,.66,1.69,3.09,3.09,0,0,0,2.2.65,8.42,8.42,0,0,0,3.67-1.39,63.21,63.21,0,0,0,6.78-4.82q4.35-3.42,11.06-9.2c3.07-2.64,6.66-5.78,10.7-9.36L416.58,180.9a47.61,47.61,0,0,1-8.29,3.44c-8,2.65-19.34,5-33.66,7-28.89,4-67.24,6.26-108,6.26s-79.1-2.22-108-6.26c-14.32-2-25.64-4.35-33.66-7a48.19,48.19,0,0,1-8.28-3.43l17.91,164.77c.83-2.84,1.75-5.67,2.78-8.5a161.4,161.4,0,0,1,7.29-17,150.63,150.63,0,0,1,9-15.67A119.78,119.78,0,0,1,164.09,291a82.24,82.24,0,0,1,11.29-10.68,53.62,53.62,0,0,1,11.69-7,29.57,29.57,0,0,1,11.69-2.52,25.25,25.25,0,0,1,12.9,3.65q6.22,3.65,11.65,11.81a9.26,9.26,0,0,1,1.57,3.68,19.39,19.39,0,0,1,.33,3.52,9.4,9.4,0,0,1-1.86,6.16,5.61,5.61,0,0,1-4.44,2.26,5.67,5.67,0,0,1-4.36-2.47A47,47,0,0,1,210,292.3a17,17,0,0,0-5.16-6,10.93,10.93,0,0,0-6.12-1.87q-5.13,0-11,4.26a63.34,63.34,0,0,0-11.54,11.24,122.08,122.08,0,0,0-11,16,165.87,165.87,0,0,0-9.27,18.4,131.89,131.89,0,0,0-6.42,18.58,66.48,66.48,0,0,0-2.38,16.45,38.94,38.94,0,0,0,.33,5,16.88,16.88,0,0,0,1.25,4.65,9.42,9.42,0,0,0,2.49,3.43,5.91,5.91,0,0,0,4,1.34,13.54,13.54,0,0,0,6.16-1.82,46.49,46.49,0,0,0,7.15-4.77,92.71,92.71,0,0,0,7.44-6.69q3.74-3.74,7-7.55t5.71-7.34a42.11,42.11,0,0,0,3.74-6.12l6.82-20.4a9.55,9.55,0,0,1,3.26-4.68,7.17,7.17,0,0,1,4.14-1.39,6.38,6.38,0,0,1,2.05.34,5.14,5.14,0,0,1,1.84,1.09,5.3,5.3,0,0,1,1.28,1.91,7.16,7.16,0,0,1,.47,2.73,39.65,39.65,0,0,1-.73,7.82,62.54,62.54,0,0,1-1.87,7.12c-.75,2.31-1.6,4.64-2.53,7s-1.83,4.79-2.71,7.34a17,17,0,0,0-1.06,2.73c-.51,1.54-1.13,3.46-1.87,5.78s-1.53,4.9-2.38,7.77-1.73,5.78-2.64,8.76-1.77,5.91-2.6,8.77-1.58,5.46-2.24,7.77-1.2,4.25-1.65,5.82-.7,2.48-.8,2.78a19.28,19.28,0,0,1-1.17,3.08,21.23,21.23,0,0,1-1.91,3.21,11.89,11.89,0,0,1-2.42,2.52,4.47,4.47,0,0,1-2.71,1,3.84,3.84,0,0,1-3.41-1.56q-1.06-1.56-1.06-5.73v-1.21a12,12,0,0,1,.07-1.3,31.7,31.7,0,0,1,1.1-5.22c.69-2.54,1.5-5.42,2.46-8.63s2-6.54,3.08-10,2.08-6.52,3-9.24c-2.59,2.9-5.39,5.77-8.42,8.64a92.17,92.17,0,0,1-9.31,7.72,54.68,54.68,0,0,1-9.6,5.6,22.7,22.7,0,0,1-9.31,2.18,16.72,16.72,0,0,1-8.84-2.26c-.44-.28-.86-.58-1.28-.89l8.77,91.92A256.57,256.57,0,0,0,383.64,478l11.68-101.34c-1.18,1.09-2.34,2.15-3.44,3.18a148.81,148.81,0,0,1-11.62,9.85A52,52,0,0,1,369.6,396a27.6,27.6,0,0,1-11.14,2.26c-3.71,0-6.59-.81-8.61-2.43a8.09,8.09,0,0,1-3.05-6.69v-.65a4.58,4.58,0,0,1,.08-.74,15.74,15.74,0,0,1,2.27-6,71,71,0,0,1,4.76-7q2.79-3.64,5.94-7.38t5.83-7.07a69.87,69.87,0,0,0,4.43-6.12,9.15,9.15,0,0,0,1.76-4.52,2,2,0,0,0-.73-1.65,3.85,3.85,0,0,0-2.42-.6,13.74,13.74,0,0,0-6,1.51,30.05,30.05,0,0,0-6.16,4.09,54.5,54.5,0,0,0-5.94,5.86,84.4,84.4,0,0,0-5.42,6.85q-2.54,3.57-4.62,7.17T337,379.55c-.29.63-.7,1.53-1.24,2.69s-1.13,2.46-1.76,3.9-1.31,2.94-2,4.47-1.35,3-1.94,4.35l-1.57,3.64q-.7,1.61-1,2.22c-.25.52-.65,1.5-1.21,2.95s-1.21,3.14-1.94,5.07-1.51,4-2.32,6.13-1.56,4.16-2.27,6.07-1.33,3.59-1.86,5-.89,2.43-1,2.95a33.07,33.07,0,0,1-1.72,4.25,17.2,17.2,0,0,1-2.28,3.52,10.42,10.42,0,0,1-2.93,2.43,7.49,7.49,0,0,1-3.7.91,7.19,7.19,0,0,1-4.36-1.26q-1.72-1.26-1.72-4.82a14.74,14.74,0,0,1,.44-3.55,31.21,31.21,0,0,1,1.1-3.61c.44-1.19.89-2.34,1.36-3.47s.89-2.21,1.28-3.26q4-8.67,8.06-17.4t7.88-17.28c.52-1.19,1-2.35,1.51-3.53l-.45.45a98.58,98.58,0,0,1-9.49,8.12,50.43,50.43,0,0,1-9.38,5.6,22.25,22.25,0,0,1-9.06,2.08,11.75,11.75,0,0,1-5-.95,8.37,8.37,0,0,1-3.23-2.61,10.34,10.34,0,0,1-1.72-3.9c-.12-.52-.19-1.06-.27-1.59-.85.67-1.72,1.32-2.59,1.93a52.56,52.56,0,0,1-8.94,5.17,19.82,19.82,0,0,1-7.92,1.95,7.51,7.51,0,0,1-5.72-2.34c-1.46-1.56-2.19-4.23-2.19-8a43.8,43.8,0,0,1,1.17-9.29,47.54,47.54,0,0,1-4.76,6.86,41.32,41.32,0,0,1-6.53,6.34,32.19,32.19,0,0,1-8.21,4.64,26.83,26.83,0,0,1-9.89,1.78,17.45,17.45,0,0,1-4.65-.61,9.74,9.74,0,0,1-3.93-2.08,10.54,10.54,0,0,1-2.71-3.95,16.39,16.39,0,0,1-1-6.21c0-.05.09-.94.29-2.65a56.44,56.44,0,0,1,1.87-8.07q1.58-5.5,4.87-14.28t9.31-21.27a11.82,11.82,0,0,1,3.55-4.73,7.43,7.43,0,0,1,4.36-1.43,8,8,0,0,1,2.13.3,6.75,6.75,0,0,1,2.05,1,5,5,0,0,1,1.54,1.65,4.45,4.45,0,0,1,.59,2.3,5.8,5.8,0,0,1-.22,1.64,20.14,20.14,0,0,1-1.57,3.87q-1.22,2.39-2.83,5.47c-1.07,2.05-2.21,4.27-3.41,6.64s-2.31,4.83-3.33,7.38a72.52,72.52,0,0,0-2.64,7.77,33.28,33.28,0,0,0-1.24,7.68,5.75,5.75,0,0,0,.73,2.87,2.55,2.55,0,0,0,2.42,1.3,15.34,15.34,0,0,0,9.09-3.13,40,40,0,0,0,8-7.77,73.62,73.62,0,0,0,6.64-10q3-5.34,4.94-9.77a49.61,49.61,0,0,0,2.46-6.33,63.25,63.25,0,0,1,2.31-6.25,19.08,19.08,0,0,1,2.86-4.78,5.29,5.29,0,0,1,8.21.09,7.61,7.61,0,0,1,1.53,4.77,13.62,13.62,0,0,1-1,4.3c-.66,1.82-1.49,3.91-2.49,6.25s-2.09,4.85-3.26,7.51-2.26,5.37-3.26,8.12a79.52,79.52,0,0,0-2.49,8.07,30.29,30.29,0,0,0-1,7.34q0,3.12,3.22,3.12a14.1,14.1,0,0,0,5.65-1.56,39,39,0,0,0,7.07-4.39c.61-.47,1.23-1,1.85-1.47a60.67,60.67,0,0,1,2.44-7.86q2.56-6.77,5.2-13.45t4.84-12.24l22.2-56a9.37,9.37,0,0,1,3.56-4.77,8.43,8.43,0,0,1,4.51-1.39,6.51,6.51,0,0,1,4.14,1.48c1.24,1,1.87,2.57,1.87,4.77a9.7,9.7,0,0,1-.63,3.3,39.85,39.85,0,0,1-1.57,3.73q-1.83,4.08-4.36,10t-5.43,12.85q-2.9,6.94-5.93,14.46T309,346.38q-2.9,7.13-5.43,13.5L299.16,371c-.53,1.33-1.06,2.88-1.57,4.65a17.24,17.24,0,0,0-.77,4.73,4.26,4.26,0,0,0,.44,2.08,1.77,1.77,0,0,0,1.69.78,9.55,9.55,0,0,0,3.84-1.08,39,39,0,0,0,5-2.87q2.67-1.77,5.57-4.08c1.93-1.53,3.84-3.12,5.75-4.77s3.73-3.3,5.46-4.95,3.29-3.17,4.66-4.56a3.22,3.22,0,0,1,1.12-.74q1.25-3.7,2.25-7.24c.39-1,.93-2.52,1.61-4.43s1.46-3.79,2.34-5.65a24.47,24.47,0,0,1,3-4.81,4.64,4.64,0,0,1,3.56-2,5.79,5.79,0,0,1,4.25,1.34,5.43,5.43,0,0,1,1.32,3.95,14,14,0,0,1-.15,1.65c-.1.76-.22,1.55-.36,2.39s-.31,1.64-.48,2.39a10.35,10.35,0,0,1-.48,1.65q2.71-3,5.86-5.86a59.81,59.81,0,0,1,6.53-5.25,37.38,37.38,0,0,1,6.89-3.83,18.1,18.1,0,0,1,7-1.47,17.09,17.09,0,0,1,4.8.69,14.07,14.07,0,0,1,4.25,2,10.67,10.67,0,0,1,3.05,3.39,9.35,9.35,0,0,1,1.17,4.73,18.7,18.7,0,0,1-1.8,7.6A54.41,54.41,0,0,1,380.45,359.49Z"/><path class="cls-2" d="M266.53,148.75c-83.8,0-151.74,9.37-151.74,20.93s67.94,20.93,151.74,20.93,151.74-9.37,151.74-20.93S350.33,148.75,266.53,148.75Zm42.55,32c-10,0-18-2.2-18-4.91s8.07-4.92,18-4.92,18,2.2,18,4.92S319,180.71,309.08,180.71Z"/><path id="Straw" class="cls-2" d="M294.7,173.63a.77.77,0,0,0-.13.43c0,1.76,6.5,3.18,14.51,3.18s14.52-1.42,14.52-3.18l19-76.87L418,17.58l.07-.08c1.6-1.8-1.64-7.39-7-12.18S399.84-1.09,398,.73c0,0,0,0,0,0L317.55,85.43Z"/></g></g></svg>