<?xml version="1.0" encoding="utf-8"?>
<!-- Generator: Adobe Illustrator 22.1.0, SVG Export Plug-In . SVG Version: 6.00 Build 0)  -->
<svg version="1.1" id="Capa_1" xmlns="http://www.w3.org/2000/svg" xmlns:xlink="http://www.w3.org/1999/xlink" x="0px" y="0px"
	 viewBox="0 0 512 512" style="enable-background:new 0 0 512 512;" xml:space="preserve">
<style type="text/css">
	.st0{fill:#FFFFFF;}
	.st1{fill:#CD6699;}
</style>
<path class="st0" d="M512,256c0,7.9-0.4,15.7-1.1,23.4c-0.5,6.1-1.3,12.2-2.3,18.1C488.8,419.2,383.2,512,256,512
	c-64.8,0-124-24.1-169.1-63.8c-16.7-14.7-31.4-31.5-43.8-50C15.9,357.6,0,308.6,0,256C0,114.6,114.6,0,256,0S512,114.6,512,256z"/>
<path class="st1" d="M446.8,285c-7.8,2.9-7.5,3-11.6-4.5c-5.2-9.5-8-19.5-8.3-30.4c-0.2-9.4,2.4-18,5.6-26.6
	c2.6-6.8-0.8-9.2-6.6-9.8c-4.3-0.4-8.7-0.4-13,0c-11.1,1.1-12.2,2.1-15.2,12.9c-1.8,6.4-3.2,12.9-6.1,19
	c-7.2,15-15.4,29.4-23.7,43.8c-1.5,2.6-2.7,5.4-4.9,7.6c-6.1-9.1-8.4-19.1-8.9-29.7c-0.5-10.4,2.7-20.1,6.2-29.6
	c1.2-3.2,0.2-5.2-2.6-6.6c-1.2-0.6-2.6-1.2-4-1.3c-7.1-0.6-14.3-0.5-21.2,1.5c-3.1,0.9-5.2,2.6-5.9,6.1c-1.4,6.9-3.5,13.6-6.3,20
	c-7.9,17.8-15.8,35.7-23.8,53.5c-6.9,15.5-13.7,31-21.9,45.9c-0.6,1.1-1.1,2.9-2.5,2.5c-1.5-0.4-1-2.2-1-3.4
	c-0.5-8.8,1.9-17.1,4-25.5c3.2-13.3,6.8-26.5,10.2-39.7c1-3.8-0.7-6.3-3.8-8.2c-4.5-2.6-9-2.7-13.9,0.9c0.7-5.4,1-10.1,0.7-14.9
	c-0.5-10.6-5.4-17.4-13.9-19c-6.2-1.2-12.1,0.6-17.7,3.3c-13,6.1-23.4,15.4-32.1,26.6c-1,1.3-2.1,2.5-3.5,3.3
	c-16.4,9-32.9,17.9-49.3,26.9c-1.8,1-3,0.7-4.3-0.7c-8.3-8.9-17.8-16.2-27.3-23.6c-13.3-10.4-27-20.2-38.4-32.7
	c-6.7-7.3-12.3-15.3-15.1-25c-4.6-15.8-1.1-30.6,6.4-44.6c9-16.6,22.3-29.4,37-40.7c23.3-18.1,48.9-32.4,75.8-44.3
	c30.2-13.2,61.5-21.7,94.8-20.4c13.2,0.5,26,2.8,37.8,9.3c8.3,4.6,13.8,11.2,15.4,20.9c1.8,11.4-0.9,21.9-5.9,31.8
	c-11.3,22.2-29.2,38-50.4,50.3c-17.6,10.3-36.7,16.8-56.8,20.2c-11.1,1.9-22.3,3-33.5,1.3c-12.8-2-24.7-6.2-33.5-16.6
	c-1-1.2-2.3-2-4-1.2c-1.8,0.9-1.6,2.4-1.5,3.9c0.1,1,0.4,2.1,0.8,3.1c2.4,6.3,6.8,11.1,11.9,15.3c13.4,10.9,29.3,14.1,45.9,14.4
	c16.3,0.3,32.4-1.7,48.3-5.5c35.9-8.6,65.9-26.2,87.8-56.3c13.1-18,21.4-37.9,20.7-60.6c-0.5-14.4-5.3-27.1-15.8-37.5
	c-12.5-12.3-28-18.5-44.6-22.2c-18.5-4.1-37.2-4.7-56.1-2.4c-16.4,2-32.5,5.3-48.1,10.7c-23.9,8.2-47,18.4-69.1,30.7
	c-22.7,12.6-44,27-62.7,45.1c-16.6,16-30.8,33.6-38.8,55.6c-3.4,9.4-5.9,19-3.6,29.2c2.9,13.1,9.4,24.4,17.8,34.6
	c12.8,15.4,28.5,27.6,44.7,39.2c13,9.3,26.6,17.8,39.1,27.9c3.5,2.8,3.5,2.8-0.6,5c-4.9,2.5-9.8,5-14.6,7.7
	C92,342.7,73.3,354.5,58.1,371c-7.5,8.1-12.6,17.2-15,27.3c12.4,18.5,27.1,35.3,43.8,50c28.4-2.2,50.2-17,66.3-41.5
	c7.8-11.8,11.4-25.2,12.8-39.3c1.2-12.4-0.1-24.5-3.7-36.3c-0.6-2.1-3-4.2-2.1-6c0.9-1.7,3.5-2.5,5.4-3.7
	c7.8-4.5,15.5-8.9,23.5-13.5c0.3,1.7-0.3,2.7-0.6,3.8c-4.6,16.8-7.8,33.7-4.3,51.2c2.2,10.9,5.8,21.1,12.6,30.1
	c7.1,9.3,22.8,8.2,29.2-0.3c6.1-8,10.1-17.1,14.3-26.1c2.3-4.9,4.4-9.9,6.6-14.9c-0.4,6-0.4,11.8-0.2,17.7
	c0.2,5.7,1.1,11.4,4.1,16.5c3.6,6.1,10.4,7.9,16.6,4.6c6.6-3.4,11.1-9.1,14.6-15.2c15.1-26.4,29-53.4,40.6-81.6c2.5-6,5-12,7.8-18.6
	c0.4,2.2,0.7,3.5,1,4.9c2.6,13.4,7.1,26.1,13.8,38.1c1.4,2.6,1.3,4.3-0.5,6.8c-6.1,8.3-12.8,16.1-19.4,24
	c-5.5,6.6-11.5,13-16.1,20.3c-4.2,6.6-1.8,13.3,5.2,14.8c2.2,0.5,4.4,0.6,6.6,0.6c12.2-0.1,23.5-3.8,34-9.8
	c14.1-8.1,22.5-19.9,22.1-36.7c-0.2-7.6-2.2-15-5.3-22c-0.7-1.6-0.7-2.7,0.3-4.1c9.8-14,18.4-28.7,26.4-43.9
	c1.4-2.7,2.4-5.6,4.7-8.2c0.3,1.1,0.5,1.7,0.7,2.4c2.5,12.5,5.9,24.8,12.3,36c1.8,3.1,0.9,4.6-1.5,6.7c-8.3,7.1-15.4,15.4-20.9,24.8
	c-4.3,7.4-7.3,15.3-7.2,23.9c0,9.6,7.4,15.3,16.8,13c9.8-2.3,18.8-6.3,27-12.3c17.7-13,22.9-26.6,17.4-45.7
	c-2.2-7.5-2.1-7.4,5.4-9.7c16.5-5,33.2-5.2,50-2.4c1.9,0.3,3.8,0.7,5.6,1.1c1-6,1.8-12,2.3-18.1C489.4,274.2,468,276.9,446.8,285z
	 M98.6,419.4c-4.8,1.7-9.7,2.4-14.8,2c-6.3-0.5-10.3-5-10.7-11.7c-0.5-7.7,1.8-14.7,5.2-21.5c6.2-12.3,16.5-20.7,27-28.9
	c10.3-8,21.3-14.8,32.4-21.5c3.4-2,3.4-2,4.2,2c1,5.2,1.9,10.3,1.6,15C144.3,383.1,123.9,410.4,98.6,419.4z M252,277.5
	c-1.8,11.9-5.7,23.2-9.8,34.3c-5.6,15.2-11.1,30.5-18.2,45.2c-1.6,3.4-3.3,6.7-5.9,9.5c-2.5,2.6-4.7,2.3-6.4-0.9
	c-3.3-6.2-2.9-13.1-3.5-18.1c0.2-25.2,8.6-45.7,22.5-64.2c3.9-5.2,8.9-9.3,15.4-11C250.6,271.1,252.7,272.9,252,277.5z M349.3,352
	c-4.8,8.2-11.6,14.2-20.1,18.5c-0.9,0.4-2.1,1.2-2.9,0.2c-0.8-1,0.5-1.7,1-2.3c8.4-9.1,16.6-18.4,24.1-28.3c0.1-0.2,0.4-0.2,1-0.4
	C352.5,344.3,351.5,348.3,349.3,352z M407.1,351.6c-1.2,0.6-2.7,1.7-3.9,0.7c-1.3-1-0.8-2.9-0.4-4.3c1.9-6.4,4.5-12.5,8-18.2
	c3-4.8,6.6-9,10.7-12.9c1.6-1.6,2.4-1.4,2.9,0.9c0.6,2.3,0.6,4.6,0.7,7C425,337.8,418.5,346.3,407.1,351.6z"/>
</svg>
