<svg xmlns="http://www.w3.org/2000/svg" viewBox="0 0 117 30"><defs><style>.cls-1{isolation:isolate;}.cls-2{fill:#ae0000;}</style></defs><title>Ресурс 1</title><g id="Слой_2" data-name="Слой 2"><g id="svg42"><g id="g3760"><g id="coddy" class="cls-1"><g id="coddy-2" data-name="coddy"><g id="g33"><path id="path31" d="M21.66,10.37c0-3.32-.75-5.86-2.22-7.62A8,8,0,0,0,13.06,0a10.24,10.24,0,0,0-8,3.2Q1.88,6.5.93,12.7L.18,17.5a18.12,18.12,0,0,0-.17,3,10.38,10.38,0,0,0,2.31,6.88A8.11,8.11,0,0,0,8.45,30a10.31,10.31,0,0,0,7.63-2.62,11.59,11.59,0,0,0,3.57-7.5l-5.75.05c-.34,2-.88,3.4-1.72,4.17a4.28,4.28,0,0,1-3.32,1.07c-2.22-.08-3.23-1.6-3.1-4.47,0-.49.13-1.55.29-3.15l.76-5A12.13,12.13,0,0,1,8.7,6.64a4.37,4.37,0,0,1,3.86-1.72c2.1.08,3.19,1.23,3.23,3.44l0,2ZM43,2.67A8.21,8.21,0,0,0,36.73,0a11,11,0,0,0-5.79,1.4,11.38,11.38,0,0,0-4.28,4.46,19.6,19.6,0,0,0-2.31,6.89l-.76,4.83a19.39,19.39,0,0,0-.12,3A10.07,10.07,0,0,0,26,27.41,8.49,8.49,0,0,0,32.24,30a10.63,10.63,0,0,0,8.18-3.23,17.1,17.1,0,0,0,4.15-9.34l.68-4.47a15.7,15.7,0,0,0,.16-3.2A11,11,0,0,0,43,2.67Zm-3.65,10-.71,5a11.56,11.56,0,0,1-2.1,5.78,4.57,4.57,0,0,1-3.82,1.68c-2.18-.08-3.32-1.56-3.4-4.34a18.06,18.06,0,0,1,.17-3.12l.71-4.91a12.52,12.52,0,0,1,2.1-6A4.49,4.49,0,0,1,36.22,5c2.14.08,3.23,1.6,3.32,4.59A19.77,19.77,0,0,1,39.33,12.7Zm71-12.25-6.67,13-2-13H95.52l4.4,18.28L98,29.58h6l1.8-10.28L117,.45Z"/></g></g><g id="coddy-3" data-name="coddy"><g id="g38"><path id="path36" class="cls-2" d="M64.72,2.13A10,10,0,0,0,59.22.45H51.88L46.71,29.58h8.06a12.1,12.1,0,0,0,8.69-3.35A15.84,15.84,0,0,0,67.82,17l.67-4.26A13.89,13.89,0,0,0,68,6.48,8.93,8.93,0,0,0,64.72,2.13ZM62.58,12.7l-.72,4.72C61.48,20,60.73,21.84,59.6,23a6.33,6.33,0,0,1-4.75,1.72l-1.46,0L56.83,5.33h2.1a3.84,3.84,0,0,1,2.76,1,4.53,4.53,0,0,1,1.05,3A17.69,17.69,0,0,1,62.58,12.7ZM91.11,6.52a8.51,8.51,0,0,0-3.23-4.39A10,10,0,0,0,82.38.45H75L69.88,29.58H78a12.08,12.08,0,0,0,8.68-3.35A15.79,15.79,0,0,0,91,17l.67-4.26A13.76,13.76,0,0,0,91.11,6.52ZM85.78,12.7l-.71,4.72A9.85,9.85,0,0,1,82.8,23a6.29,6.29,0,0,1-4.74,1.72l-1.47,0L80,5.33h2.1a3.86,3.86,0,0,1,2.77,1,4.59,4.59,0,0,1,1,3A17.9,17.9,0,0,1,85.78,12.7Z"/></g></g></g></g></g></g></svg>